{
  "accessors": [
    {
      "bufferView": 2,
      "componentType": 5126,
      "count": 10857,
      "max": [
        15.704570770263672,
        9.0427608489990234,
        15.075892448425293
      ],
      "min": [
        -14.789073944091797,
        -9.0427608489990234,
        -0.0039768223650753498
      ],
      "type": "VEC3"
    },
    {
      "bufferView": 2,
      "byteOffset": 130284,
      "componentType": 5126,
      "count": 10857,
      "max": [
        1,
        1,
        1
      ],
      "min": [
        -1,
        -1,
        -1
      ],
      "type": "VEC3"
    },
    {
      "bufferView": 1,
      "componentType": 5126,
      "count": 10857,
      "max": [
        1.0000001192092896,
        1.0000001192092896
      ],
      "min": [
        0,
        0
      ],
      "type": "VEC2"
    },
    {
      "bufferView": 0,
      "componentType": 5125,
      "count": 59280,
      "max": [
        10856
      ],
      "min": [
        0
      ],
      "type": "SCALAR"
    },
    {
      "bufferView": 2,
      "byteOffset": 260568,
      "componentType": 5126,
      "count": 1680,
      "max": [
        15.684909820556641,
        3.0901446342468262,
        14.459473609924316
      ],
      "min": [
        -8.9041242599487305,
        -3.0901446342468262,
        2.5754525661468506
      ],
      "type": "VEC3"
    },
    {
      "bufferView": 2,
      "byteOffset": 280728,
      "componentType": 5126,
      "count": 1680,
      "max": [
        1,
        1,
        1
      ],
      "min": [
        -1,
        -1,
        -0.99408984184265137
      ],
      "type": "VEC3"
    },
    {
      "bufferView": 1,
      "byteOffset": 86856,
      "componentType": 5126,
      "count": 1680,
      "max": [
        0,
        0
      ],
      "min": [
        0,
        0
      ],
      "type": "VEC2"
    },
    {
      "bufferView": 0,
      "byteOffset": 237120,
      "componentType": 5125,
      "count": 8784,
      "max": [
        1679
      ],
      "min": [
        0
      ],
      "type": "SCALAR"
    },
    {
      "bufferView": 2,
      "byteOffset": 300888,
      "componentType": 5126,
      "count": 7445,
      "max": [
        14.786495208740234,
        9.0403556823730469,
        14.789484977722168
      ],
      "min": [
        -14.786495208740234,
        -9.0403556823730469,
        2.1342999935150146
      ],
      "type": "VEC3"
    },
    {
      "bufferView": 2,
      "byteOffset": 390228,
      "componentType": 5126,
      "count": 7445,
      "max": [
        1,
        1,
        0.99988007545471191
      ],
      "min": [
        -1,
        -1,
        -0.99941456317901611
      ],
      "type": "VEC3"
    },
    {
      "bufferView": 3,
      "componentType": 5126,
      "count": 7445,
      "max": [
        0.99893254041671753,
        0.99064671993255615,
        0.99999994039535522,
        1
      ],
      "min": [
        -0.99987387657165527,
        -0.99067956209182739,
        -0.90870964527130127,
        -1
      ],
      "type": "VEC4"
    },
    {
      "bufferView": 1,
      "byteOffset": 100296,
      "componentType": 5126,
      "count": 7445,
      "max": [
        0.98027181625366211,
        0.95292878150939941
      ],
      "min": [
        0.036036416888237,
        0.048825986683368683
      ],
      "type": "VEC2"
    },
    {
      "bufferView": 0,
      "byteOffset": 272256,
      "componentType": 5125,
      "count": 37344,
      "max": [
        7444
      ],
      "min": [
        0
      ],
      "type": "SCALAR"
    },
    {
      "bufferView": 2,
      "byteOffset": 479568,
      "componentType": 5126,
      "count": 506,
      "max": [
        13.96602725982666,
        7.9510636329650879,
        13.459715843200684
      ],
      "min": [
        -13.823258399963379,
        -7.9510636329650879,
        1.0568506717681885
      ],
      "type": "VEC3"
    },
    {
      "bufferView": 2,
      "byteOffset": 485640,
      "componentType": 5126,
      "count": 506,
      "max": [
        0.97088134288787842,
        0.9251822829246521,
        0.84687155485153198
      ],
      "min": [
        -0.39601039886474609,
        -0.92544209957122803,
        -1
      ],
      "type": "VEC3"
    },
    {
      "bufferView": 1,
      "byteOffset": 159856,
      "componentType": 5126,
      "count": 506,
      "max": [
        0,
        0
      ],
      "min": [
        0,
        0
      ],
      "type": "VEC2"
    },
    {
      "bufferView": 0,
      "byteOffset": 421632,
      "componentType": 5125,
      "count": 2520,
      "max": [
        505
      ],
      "min": [
        0
      ],
      "type": "SCALAR"
    }
  ],
  "asset": {
    "extras": {
      "author": "trendforward (https://sketchfab.com/trendforward)",
      "license": "CC-BY-NC-ND-4.0 (http://creativecommons.org/licenses/by-nc-nd/4.0/)",
      "source": "https://sketchfab.com/3d-models/stainless-steel-toaster-664134681dbd43219f5554390aa5b2a1",
      "title": "Stainless Steel Toaster"
    },
    "generator": "Sketchfab-9.62.3",
    "version": "2.0"
  },
  "bufferViews": [
    {
      "buffer": 0,
      "byteLength": 431712,
      "byteOffset": 0,
      "name": "floatBufferViews",
      "target": 34963
    },
    {
      "buffer": 0,
      "byteLength": 163904,
      "byteOffset": 431712,
      "byteStride": 8,
      "name": "floatBufferViews",
      "target": 34962
    },
    {
      "buffer": 0,
      "byteLength": 491712,
      "byteOffset": 595616,
      "byteStride": 12,
      "name": "floatBufferViews",
      "target": 34962
    },
    {
      "buffer": 0,
      "byteLength": 119120,
      "byteOffset": 1087328,
      "byteStride": 16,
      "name": "floatBufferViews",
      "target": 34962
    }
  ],
  "buffers": [
    {
      "byteLength": 1206448,
      "uri": "scene.bin"
    }
  ],
  "images": [
    {
      "uri": "textures/Brushed_Steel_Toaster_normal.png"
    }
  ],
  "materials": [
    {
      "doubleSided": true,
      "emissiveFactor": [
        0,
        0,
        0
      ],
      "name": "Chrome",
      "pbrMetallicRoughness": {
        "baseColorFactor": [
          1,
          0.67982413402071185,
          0.12554694619288631,
          1
        ],
        "metallicFactor": 1,
        "roughnessFactor": 0
      }
    },
    {
      "doubleSided": true,
      "emissiveFactor": [
        0,
        0,
        0
      ],
      "name": "Toaster_Inside",
      "pbrMetallicRoughness": {
        "baseColorFactor": [
          0.4404641729196031,
          0.4404641729196031,
          0.4404641729196031,
          1
        ],
        "metallicFactor": 1,
        "roughnessFactor": 0.52403644455794107
      }
    },
    {
      "doubleSided": true,
      "emissiveFactor": [
        0,
        0,
        0
      ],
      "name": "Brushed_Steel_Toaster",
      "normalTexture": {
        "index": 0,
        "scale": 1,
        "texCoord": 0
      },
      "pbrMetallicRoughness": {
        "baseColorFactor": [
          0.80000000000000004,
          0.80000000000000004,
          0.80000000000000004,
          1
        ],
        "metallicFactor": 1,
        "roughnessFactor": 0.18354674741136623
      }
    },
    {
      "doubleSided": true,
      "emissiveFactor": [
        0,
        0,
        0
      ],
      "name": "Matt_black",
      "pbrMetallicRoughness": {
        "baseColorFactor": [
          0,
          0,
          0,
          1
        ],
        "metallicFactor": 0,
        "roughnessFactor": 1
      }
    }
  ],
  "meshes": [
    {
      "name": "StainlessSteel_Toaster_Chrome_0",
      "primitives": [
        {
          "attributes": {
            "NORMAL": 1,
            "POSITION": 0,
            "TEXCOORD_0": 2
          },
          "indices": 3,
          "material": 0,
          "mode": 4
        }
      ]
    },
    {
      "name": "StainlessSteel_Toaster_Toaster_Inside_0",
      "primitives": [
        {
          "attributes": {
            "NORMAL": 5,
            "POSITION": 4,
            "TEXCOORD_0": 6
          },
          "indices": 7,
          "material": 1,
          "mode": 4
        }
      ]
    },
    {
      "name": "StainlessSteel_Toaster_Brushed_Steel_Toaster_0",
      "primitives": [
        {
          "attributes": {
            "NORMAL": 9,
            "POSITION": 8,
            "TANGENT": 10,
            "TEXCOORD_0": 11
          },
          "indices": 12,
          "material": 2,
          "mode": 4
        }
      ]
    },
    {
      "name": "StainlessSteel_Toaster_Matt black_0",
      "primitives": [
        {
          "attributes": {
            "NORMAL": 14,
            "POSITION": 13,
            "TEXCOORD_0": 15
          },
          "indices": 16,
          "material": 3,
          "mode": 4
        }
      ]
    }
  ],
  "nodes": [
    {
      "children": [
        1
      ],
      "name": "RootNode (gltf orientation matrix)",
      "rotation": [
        -0.70710678118654746,
        -0,
        -0,
        0.70710678118654757
      ]
    },
    {
      "children": [
        2
      ],
      "matrix": [
        0.00013365551421884447,
        0,
        0,
        0,
        0,
        0.00013365551421884447,
        0,
        0,
        0,
        0,
        0.00013365551421884447,
        0,
        0,
        0,
        0,
        1
      ],
      "name": "RootNode (model correction matrix)"
    },
    {
      "children": [
        3
      ],
      "matrix": [
        1,
        0,
        0,
        0,
        0,
        0,
        1,
        0,
        0,
        -1,
        0,
        0,
        0,
        0,
        0,
        1
      ],
      "name": "754b66d8c6aa40ce8b2c5d5a5e89c2f6.fbx"
    },
    {
      "children": [
        4
      ],
      "name": "RootNode"
    },
    {
      "children": [
        5,
        6,
        7,
        8
      ],
      "matrix": [
        100,
        0,
        0,
        0,
        0,
        -1.6292067939183141e-05,
        -99.999999999998678,
        0,
        0,
        99.999999999998678,
        -1.6292067939183141e-05,
        0,
        0,
        0,
        0,
        1
      ],
      "name": "StainlessSteel_Toaster"
    },
    {
      "mesh": 0,
      "name": "StainlessSteel_Toaster_Chrome_0"
    },
    {
      "mesh": 1,
      "name": "StainlessSteel_Toaster_Toaster_Inside_0"
    },
    {
      "mesh": 2,
      "name": "StainlessSteel_Toaster_Brushed_Steel_Toaster_0"
    },
    {
      "mesh": 3,
      "name": "StainlessSteel_Toaster_Matt black_0"
    }
  ],
  "samplers": [
    {
      "magFilter": 9729,
      "minFilter": 9987,
      "wrapS": 10497,
      "wrapT": 10497
    }
  ],
  "scene": 0,
  "scenes": [
    {
      "name": "OSG_Scene",
      "nodes": [
        0
      ]
    }
  ],
  "textures": [
    {
      "sampler": 0,
      "source": 0
    }
  ]
}

